<?xml version="1.0" encoding="UTF-8" standalone="no"?>
<!-- Generator: Adobe Illustrator 26.0.1, SVG Export Plug-In . SVG Version: 6.00 Build 0)  -->

<svg
   version="1.1"
   id="图层_2"
   x="0px"
   y="0px"
   viewBox="0 0 528.4239 202.78199"
   xml:space="preserve"
   sodipodi:docname="SCP_Foundation.svg"
   width="528.42389"
   height="202.782"
   inkscape:version="1.4.3 (1:1.4.3+202512261035+0d15f75042)"
   inkscape:export-filename="SCP_text_and_logo.png"
   inkscape:export-xdpi="96"
   inkscape:export-ydpi="96"
   xmlns:inkscape="http://www.inkscape.org/namespaces/inkscape"
   xmlns:sodipodi="http://sodipodi.sourceforge.net/DTD/sodipodi-0.dtd"
   xmlns:xlink="http://www.w3.org/1999/xlink"
   xmlns="http://www.w3.org/2000/svg"
   xmlns:svg="http://www.w3.org/2000/svg"><sodipodi:namedview
   id="namedview31"
   pagecolor="#ffffff"
   bordercolor="#000000"
   borderopacity="0.25"
   inkscape:showpageshadow="2"
   inkscape:pageopacity="0.0"
   inkscape:pagecheckerboard="0"
   inkscape:deskcolor="#d1d1d1"
   inkscape:zoom="0.6848018"
   inkscape:cx="164.28111"
   inkscape:cy="48.189126"
   inkscape:window-width="2048"
   inkscape:window-height="1248"
   inkscape:window-x="0"
   inkscape:window-y="0"
   inkscape:window-maximized="1"
   inkscape:current-layer="图层_2" />
<style
   type="text/css"
   id="style1">
	.st0{fill:#FFFFFF;filter:url(#Adobe_OpacityMaskFilter);}
	.st1{fill:#040000;}
	.st2{mask:url(#c_00000010311795295580771660000006667097733119043993_);}
	.st3{fill:none;stroke:#040000;stroke-width:10;}
</style>
<defs
   id="defs4">
	<filter
   id="Adobe_OpacityMaskFilter"
   filterUnits="userSpaceOnUse"
   x="336.09"
   y="27.84"
   width="164.56"
   height="154">
		<feColorMatrix
   type="matrix"
   values="1 0 0 0 0  0 1 0 0 0  0 0 1 0 0  0 0 0 1 0"
   id="feColorMatrix1" />
	</filter>
	<mask
   id="c">
		<path
   d="M -1200,-1200 H 1200 V 1200 H -1200 Z"
   fill="#ffffff"
   id="path1" />
		<circle
   r="925"
   id="circle1"
   cx="0"
   cy="0" />
		<path
   d="m -306,-861 36,-185 h 540 l 36,185"
   id="path2" />
		<path
   transform="rotate(120)"
   d="m -306,-861 36,-185 h 540 l 36,185"
   id="path3" />
		<path
   transform="rotate(-120)"
   d="m -306,-861 36,-185 h 540 l 36,185"
   id="path4" />
	</mask>
</defs>



<g
   id="g3"
   transform="translate(-0.94784441,5.7286936)"
   inkscape:label="text"><text
     xml:space="preserve"
     style="font-style:normal;font-variant:normal;font-weight:normal;font-stretch:normal;font-size:65.9528px;font-family:Bauhaus;-inkscape-font-specification:Bauhaus;text-align:center;writing-mode:lr-tb;direction:ltr;text-anchor:middle;fill:#000000;fill-opacity:1;stroke:#000000;stroke-width:0;stroke-linecap:round;stroke-opacity:0;paint-order:stroke markers fill"
     x="151.98004"
     y="196.26192"
     id="text3"
     inkscape:label="foundation"><tspan
       sodipodi:role="line"
       style="stroke-width:0"
       x="151.98004"
       y="196.26192"
       id="tspan3">Foundation</tspan></text><text
     xml:space="preserve"
     style="font-style:normal;font-variant:normal;font-weight:normal;font-stretch:normal;font-size:200.888px;font-family:Bauhaus;-inkscape-font-specification:Bauhaus;text-align:center;writing-mode:lr-tb;direction:ltr;text-anchor:middle;fill:#000000;fill-opacity:1;stroke:#000000;stroke-width:0;stroke-linecap:round;stroke-opacity:0;paint-order:stroke markers fill"
     x="150.60957"
     y="137.30354"
     id="text1"
     inkscape:label="scp"><tspan
       sodipodi:role="line"
       style="stroke-width:0"
       x="150.60957"
       y="137.30354"
       id="tspan2">SCP</tspan></text></g><g
   id="g5"
   transform="matrix(1.7556275,0,0,1.7556275,300.35948,-17.380712)"><circle
     cx="67.699997"
     cy="71.5"
     r="33"
     fill="none"
     stroke="#000000"
     stroke-width="6"
     id="circle1-3" /><path
     d="m 51.9,11.9 h 31.7 l 3.07,11.4 0.944,0.391 c 19.4,8.03 32,26.9 32,47.9 0,2.26 -0.149,4.53 -0.445,6.77 l -0.133,1.01 8.37,8.37 -15.8,27.4 -11.4,-3.06 -0.809,0.623 c -9.06,6.95 -20.2,10.7 -31.6,10.7 -11.4,6e-5 -22.5,-3.77 -31.6,-10.7 l -0.81,-0.623 -11.4,3.06 -15.8,-27.4 8.37,-8.37 -0.133,-1.01 c -0.296,-2.25 -0.445,-4.51 -0.445,-6.77 1.41e-4,-21 12.6,-39.9 32,-47.9 L 48.923,23.3 Z"
     fill="none"
     stroke="#000000"
     stroke-width="4"
     id="path1-6" /><path
     id="b"
     d="m 64.7,30.6 v 24 h -5.08 l 8.08,14 8.08,-14 H 70.7 l -2.65e-4,-24 h -5.99" /><use
     id="a"
     transform="rotate(120,67.7,71.5)"
     xlink:href="#b" /><use
     transform="rotate(120,67.7,71.5)"
     xlink:href="#a"
     id="use1" /></g></svg>
